<?xml version="1.0" encoding="utf-8"?>
<!-- Generator: Adobe Illustrator 15.0.2, SVG Export Plug-In . SVG Version: 6.00 Build 0)  -->
<!DOCTYPE svg PUBLIC "-//W3C//DTD SVG 1.1//EN" "http://www.w3.org/Graphics/SVG/1.1/DTD/svg11.dtd">
<svg version="1.1" id="Layer_1" xmlns="http://www.w3.org/2000/svg" xmlns:xlink="http://www.w3.org/1999/xlink" x="0px" y="0px"
	 width="48px" height="48px" viewBox="0 0 48 48" enable-background="new 0 0 48 48" xml:space="preserve">
<rect width="48" height="48"/>
<rect x="0.5" y="0.5" fill="none" stroke="#2E3192" stroke-width="0.2835" stroke-miterlimit="10" width="47" height="47"/>
<g>
	<linearGradient id="SVGID_1_" gradientUnits="userSpaceOnUse" x1="24" y1="47.834" x2="24" y2="0.4995">
		<stop  offset="0" style="stop-color:#DFDFDF"/>
		<stop  offset="0.75" style="stop-color:#F9F9FA"/>
	</linearGradient>
	<path fill="url(#SVGID_1_)" d="M24,11.023c-7.145,0-12.958,5.822-12.958,12.978c0,7.157,5.813,12.977,12.958,12.977
		c7.144,0,12.957-5.819,12.957-12.977C36.957,16.845,31.144,11.023,24,11.023z M24,31.118c-3.924,0-7.104-3.188-7.104-7.117
		c0-3.931,3.18-7.117,7.104-7.117c3.923,0,7.104,3.187,7.104,7.117C31.104,27.93,27.923,31.118,24,31.118z"/>
	<linearGradient id="SVGID_2_" gradientUnits="userSpaceOnUse" x1="24" y1="47.833" x2="24" y2="0.4977">
		<stop  offset="0" style="stop-color:#DFDFDF"/>
		<stop  offset="0.75" style="stop-color:#F9F9FA"/>
	</linearGradient>
	<path fill="url(#SVGID_2_)" d="M42.195,20.36c-0.058-0.29-0.122-0.575-0.193-0.86l0.034-0.016
		c-0.619-2.646,3.954-4.633,3.954-4.633l-1.123-2.039l-0.063-0.114l-0.037-0.068l-0.063-0.116l-1.123-2.04
		c0,0-4.12,2.812-6.021,0.873L37.52,11.37c-0.004-0.005-0.008-0.01-0.015-0.016l0.027-0.04c-1.839-2,1.177-5.978,1.177-5.978
		L36.731,4.11L36.62,4.04L36.554,4l-0.11-0.07l-1.979-1.225c0,0-2.214,4.474-4.819,3.72l-0.021,0.032
		c-0.359-0.111-0.729-0.208-1.096-0.296C26.043,5.319,26.495,0.5,26.495,0.5h-2.324h-0.133h-0.076h-0.134h-2.324
		c0,0,0.472,4.972-2.14,5.703V6.29l-0.042-0.075c-2.636,0.646-4.664-3.917-4.664-3.917l-2.025,1.143l-0.112,0.064l-0.069,0.039
		l-0.113,0.064L10.311,4.75c0,0,2.846,4.1,0.928,6.022l0.104,0.187c-0.054,0.055-0.109,0.111-0.165,0.167l-0.188-0.11
		c-1.947,1.891-5.996-1.022-5.996-1.022l-1.174,2.01l-0.065,0.113l-0.039,0.068L3.65,12.299L2.479,14.31c0,0,4.523,2.1,3.838,4.73
		l0.076,0.042H6.305c-0.772,2.605-5.728,2.058-5.728,2.058l-0.036,2.326l-0.003,0.132l0,0.078l-0.002,0.129L0.5,26.133
		c0,0,4.971-0.393,5.662,2.235l0.278,0.006c0.009,0.04,0.018,0.082,0.028,0.128l-0.033,0.016c0.619,2.645-3.955,4.634-3.955,4.634
		l1.122,2.038l0.063,0.117l0.038,0.068l0.063,0.113l1.122,2.04c0,0,4.12-2.813,6.021-0.872l0.042-0.024
		c0.004,0.004,0.007,0.009,0.013,0.015l-0.024,0.04c1.836,2.001-1.177,5.979-1.177,5.979l1.977,1.226l0.112,0.069l0.065,0.042
		l0.114,0.068l1.975,1.227c0,0,2.213-4.476,4.819-3.72l0.021-0.034c0.173,0.053,0.348,0.101,0.522,0.148v0.105
		c2.612,0.734,2.14,5.703,2.14,5.703h2.324h0.134h0.076h0.133h2.324c0,0-0.452-4.817,2.034-5.659
		c0.106-0.026,0.217-0.05,0.321-0.076c2.55-0.409,4.488,3.938,4.488,3.938l2.023-1.142l0.117-0.065l0.066-0.036l0.114-0.065
		l2.027-1.144c0,0-2.411-3.486-1.284-5.534c0.392-0.346,0.765-0.713,1.124-1.096c2.069-1.056,5.477,1.387,5.477,1.387l1.173-2.011
		l0.066-0.114l0.039-0.067l0.065-0.112l1.173-2.012c0,0-3.639-1.696-3.885-3.947c0.167-0.495,0.309-1.008,0.43-1.522
		c1.377-1.79,5.355-1.355,5.355-1.355l0.038-2.331l0.003-0.129v-0.081l0.002-0.129l0.036-2.327
		C47.5,21.868,43.528,22.177,42.195,20.36z M24,37.815c-7.606,0-13.793-6.196-13.793-13.814S16.394,10.186,24,10.186
		c7.604,0,13.791,6.197,13.791,13.815S31.604,37.815,24,37.815z"/>
</g>
</svg>
